<svg width="95" height="49" viewBox="0 0 95 49" fill="none" xmlns="http://www.w3.org/2000/svg">
<path d="M94.6345 22.5181C94.8997 24.2364 94.7704 25.7567 94.2509 27.0817C93.7282 28.4075 92.9649 29.5513 91.9583 30.5224C90.9499 31.4902 89.7836 32.2683 88.4548 32.8552C87.1265 33.4421 85.7991 33.8388 84.476 34.0433C83.3796 34.2121 82.3564 34.3136 81.4002 34.3436C80.5274 34.3744 79.6539 34.3854 78.7806 34.3765C77.9869 34.367 77.2484 34.3565 76.5721 34.3436C75.8925 34.3322 75.2947 34.3661 74.7819 34.4471C74.5552 34.4829 74.3175 34.6016 74.0699 34.8066C73.8228 35.0116 73.6175 35.2395 73.4583 35.4979L71.2617 21.259C71.7246 22.5233 72.3839 23.7063 73.215 24.7641C74.0581 25.8454 74.9867 26.7699 75.9952 27.5422C77.0065 28.3136 78.0369 28.9019 79.0886 29.3034C80.1403 29.7038 81.1345 29.834 82.0698 29.6895C82.6607 29.5992 83.2444 29.4673 83.8168 29.2948C84.3686 29.127 84.8562 28.9105 85.2768 28.6469C85.6974 28.3837 86.0196 28.0514 86.2378 27.6538C86.4559 27.2562 86.5243 26.7813 86.4397 26.2306C86.3067 25.3567 85.9564 24.5892 85.3899 23.9279C84.8244 23.2704 84.102 22.7103 83.2223 22.2468C82.3431 21.7868 81.3327 21.3953 80.195 21.074C78.9937 20.7392 77.7771 20.4625 76.5493 20.2449C74.6122 19.8826 72.908 19.0673 71.4404 17.7992C69.9742 16.5343 69.0523 14.6869 68.6778 12.2564C68.4672 10.8957 68.5837 9.61893 69.0285 8.42132C69.47 7.22513 70.1634 6.13907 71.103 5.166C72.0421 4.19246 73.196 3.37482 74.5628 2.71641C75.9291 2.05849 77.4357 1.6008 79.0805 1.34764C80.7914 1.08256 82.3726 1.02297 83.8292 1.15932C85.2873 1.29853 86.5158 1.29281 87.5171 1.13644C87.7438 1.1002 87.9815 0.98149 88.2291 0.77696C88.4767 0.571954 88.6663 0.343106 88.7922 0.0942383L90.5934 11.7581C90.179 10.7932 89.574 9.91691 88.7751 9.13026C87.981 8.34638 87.086 7.67261 86.1137 7.12691C85.1658 6.59248 84.1463 6.19751 83.0864 5.95409C82.0423 5.71809 81.0694 5.66898 80.165 5.8082C79.003 5.98841 78.0159 6.37363 77.1961 6.96291C76.3782 7.55552 76.0327 8.25445 76.1587 9.06398C76.2551 9.68091 76.66 10.1796 77.3796 10.5667C78.0986 10.9529 78.9859 11.3057 80.0443 11.6218C81.0994 11.9393 82.2623 12.2583 83.535 12.5729C84.7935 12.8878 86.0295 13.287 87.2348 13.7677C89.3131 14.6096 90.977 15.7019 92.225 17.0516C93.4772 18.3922 94.279 20.2173 94.6345 22.5181ZM34.3405 27.813C35.7482 31.3076 35.6256 34.4099 33.9707 37.1151C32.3159 39.8202 29.2952 42.0619 24.9087 43.8397L12.3355 48.9363L13.4732 44.5511L4.45584 22.162L0.601562 19.8006L12.4001 15.0187C13.5507 14.5515 14.8153 14.11 16.194 13.6933C17.5723 13.2762 18.9068 13.0259 20.1952 12.9472C21.4831 12.868 22.6413 13.0177 23.6749 13.3925C24.7062 13.7715 25.4495 14.5214 25.9024 15.6456C26.1319 16.2041 26.2305 16.8079 26.1904 17.4106C26.1515 18.007 26.0125 18.5926 25.7793 19.1427C25.5363 19.7122 25.2056 20.2399 24.7994 20.7064C24.3848 21.1895 23.9075 21.6146 23.3803 21.9703L23.4539 22.1529C24.0238 21.9932 24.8103 21.9384 25.8183 21.9923C26.8249 22.0428 27.8681 22.2759 28.9497 22.6869C30.0314 23.0983 31.0613 23.7129 32.0422 24.5377C33.0212 25.3482 33.7883 26.4418 34.3405 27.813ZM17.6355 19.8869C17.4639 19.4611 17.1992 19.136 16.8437 18.9071C16.4887 18.6783 16.0847 18.5329 15.6366 18.4685C15.1879 18.4046 14.7179 18.4352 14.2251 18.5639C13.7318 18.6931 13.2532 18.8871 12.7965 19.1431L14.688 23.8392C15.8029 23.4578 16.6531 22.9086 17.2434 22.1925C17.8351 21.4793 17.9667 20.7103 17.6355 19.8869ZM25.9376 31.588C25.6 30.7564 25.1217 29.9896 24.5237 29.3215C23.9267 28.6447 23.195 28.1009 22.3756 27.7253C21.5567 27.3491 20.64 27.1727 19.6291 27.1951C18.6183 27.2171 17.5395 27.5126 16.396 28.0805L21.6485 41.1217C22.8566 40.6321 23.8351 40.0233 24.5808 39.2957C25.3264 38.5692 25.8544 37.7811 26.161 36.9305C26.4694 36.0837 26.5998 35.182 26.544 34.2821C26.4924 33.3565 26.2874 32.446 25.9376 31.588Z" fill="white"/>
</svg>
